<svg width="27" height="19" viewBox="0 0 27 19" fill="none" xmlns="http://www.w3.org/2000/svg">
<path d="M25.6 7.37333C26.2267 7.25333 26.6667 6.70667 26.6667 6.06667V1.33333C26.6667 0.6 26.0667 0 25.3333 0H1.33333C0.6 0 0 0.6 0 1.33333V6.06667C0 6.70667 0.44 7.25333 1.06667 7.37333C2 7.56 2.66667 8.38667 2.66667 9.33333C2.66667 10.28 2 11.1067 1.06667 11.2933C0.44 11.4133 0 11.96 0 12.6V17.3333C0 18.0667 0.6 18.6667 1.33333 18.6667H18.6667V17.3333H20V18.6667H25.3333C26.0667 18.6667 26.6667 18.0667 26.6667 17.3333V12.6C26.6667 11.96 26.2267 11.4133 25.6 11.2933C24.6667 11.1067 24 10.28 24 9.33333C24 8.38667 24.6667 7.56 25.6 7.37333ZM20 16H18.6667V13.3333H20V16ZM20 12H18.6667V9.33333H20V12ZM20 8H18.6667V5.33333H20V8ZM20 4H18.6667V1.33333H20V4Z" fill="white"/>
</svg>
